<svg width="116" height="89" viewBox="0 0 116 89" fill="none" xmlns="http://www.w3.org/2000/svg">
<path d="M116 0H26.8611V11.8667H116V0Z" fill="white"/>
<path d="M116 77.1333H49.0007V89H116V77.1333Z" fill="white"/>
<path d="M116 0H104.115V89H116V0Z" fill="white"/>
<path d="M38.7463 0H26.8611V36.554H38.7463V0Z" fill="white"/>
<path d="M7.72537 43.2931H0V51.0065H7.72537V43.2931Z" fill="#3DA1FF"/>
<path d="M43.0422 44.1831H12.1407V50.1165H43.0422V44.1831Z" fill="#3DA1FF"/>
<path d="M7.72537 61.0931H0V68.8065H7.72537V61.0931Z" fill="#3DA1FF"/>
<path d="M43.0422 61.9831H12.1407V67.9165H43.0422V61.9831Z" fill="#3DA1FF"/>
<path d="M7.72537 78.8931H0V86.6065H7.72537V78.8931Z" fill="#3DA1FF"/>
<path d="M43.0422 79.7831H12.1407V85.7165H43.0422V79.7831Z" fill="#3DA1FF"/>
</svg>
