<svg viewBox="0 0 25 25" >
<path d="M13.2324 3.71094H11.7676C11.6374 3.71094 11.5723 3.77604 11.5723 3.90625V21.0938C11.5723 21.224 11.6374 21.2891 11.7676 21.2891H13.2324C13.3626 21.2891 13.4277 21.224 13.4277 21.0938V3.90625C13.4277 3.77604 13.3626 3.71094 13.2324 3.71094Z"/>
<path d="M20.7031 11.5723H4.29688C4.16667 11.5723 4.10156 11.6374 4.10156 11.7676V13.2324C4.10156 13.3626 4.16667 13.4277 4.29688 13.4277H20.7031C20.8333 13.4277 20.8984 13.3626 20.8984 13.2324V11.7676C20.8984 11.6374 20.8333 11.5723 20.7031 11.5723Z"/>
</svg>
