<svg width="180" height="180" viewBox="0 0 180 180" fill="none" xmlns="http://www.w3.org/2000/svg">
<path d="M116.73 35.0626C116.125 32.8447 114.669 30.956 112.68 29.808C110.691 28.66 108.33 28.3456 106.11 28.9334L75.51 37.1357L35.55 0L24.48 2.97446L48.42 44.3465L19.71 52.008L8.37 43.1748L0 45.4281L14.94 71.3871L110.52 45.7887C115.2 44.4367 117.9 39.6595 116.73 35.0626ZM171 71.8378L162 89.8648H117L108 71.8378L117 62.8242H135V44.7972H144V62.8242H162L171 71.8378ZM180 161.973V180H0V161.973H117V98.8783H162V161.973H180Z" fill="white" fill-opacity="0.3"/>
</svg>
